[Header]
FileType HTR
DataType HTRS
FileVersion 1
NumSegments 22
NumFrames 4
DataFrameRate 24
EulerRotationOrder ZYX
CalibrationUnits mm
RotationUnits Degrees
GlobalAxisofGravity Y
BoneLengthAxis Y
ScaleFactor 1.0
[SegmentNames&Hierarchy]
reference	GLOBAL
Hips	reference
Spine	Hips
Spine1	Spine
Neck	Spine1
Head	Neck
LeftShoulder	Spine1
LeftArm	LeftShoulder
LeftForeArm	LeftArm
LeftHand	LeftForeArm
RightShoulder	Spine1
RightArm	RightShoulder
RightForeArm	RightArm
RightHand	RightForeArm
LeftUpLeg	Hips
LeftLeg	LeftUpLeg
LeftFoot	LeftLeg
LeftToeBase	LeftFoot
RightUpLeg	Hips
RightLeg	RightUpLeg
RightFoot	RightLeg
RightToeBase	RightFoot
[BasePosition]
reference	0	0	0	0	0	0	1
Hips	0	0	0	0	0	0	1
Spine	0	0	0	0	-0	90	1
Spine1	0	0	0	0	0	0	1
Neck	0	0	0	-7.352430803	-7.352430803	90	1
Head	0	0	0	0	-0	90	1
LeftShoulder	0	0	0	0	0	0	1
LeftArm	0	0	0	0	0	0	1
LeftForeArm	0	0	0	0	0	0	1
LeftHand	0	0	0	0	0	0	1
RightShoulder	0	0	0	0	-0	180	1
RightArm	0	0	0	0	-0	180	1
RightForeArm	0	0	0	0	-0	180	1
RightHand	0	0	0	0	-0	180	1
LeftUpLeg	0	0	0	0	-0	-90	1
LeftLeg	0	0	0	0	-0	-90	1
LeftFoot	0	0	0	66.57150701	-66.57150701	-90	1
LeftToeBase	0	0	0	0	-90	0	1
RightUpLeg	0	0	0	0	-0	-90	1
RightLeg	0	0	0	0	-0	-90	1
RightFoot	0	0	0	66.57150701	-66.57150701	-90	1
RightToeBase	0	0	0	0	-90	0	1
[reference]
37	0	0	0	0	-0	0	1.0
38	0	0	0	0	-0	0	1.0
39	0	0	0	0	-0	0	1.0
40	0	0	0	0	-0	0	1.0
[Hips]
37	1.172363639	8.257659912	0.8138661385	-7.405944824	-108.940567	-2.616485596	1.0
38	1.192800045	8.558053017	0.9169491529	-5.435307503	-112.6467056	-0.6091905236	1.0
39	1.213787079	8.760002136	0.9438170195	-7.895251751	-115.4450455	4.433851242	1.0
40	1.205244064	8.782171249	0.9532150626	-10.23846817	-115.6670151	7.007768631	1.0
[Spine]
37	0	0.7478299737	0	2.102894306	3.069024801	-89.12068176	1.0
38	0	0.7478299737	0	2.426313639	0.8382122517	-89.05355835	1.0
39	0	0.7478299737	0	4.105534554	-0.4308364987	-87.39190674	1.0
40	0	0.7478299737	0	6.713880062	-2.030835152	-86.15162659	1.0
[Spine1]
37	0	2.049309969	0	-6.903059006	1.045128226	0.292642206	1.0
38	0	2.049309969	0	-4.636803627	0.3069560826	0.8157297969	1.0
39	0	2.049309969	0	-1.219974637	-0.04950141907	1.635804176	1.0
40	0	2.049309969	0	4.710018158	-0.6067125201	-0.1369444281	1.0
[Neck]
37	0	2.231709957	0	15.35754776	11.21780109	-81.30548859	1.0
38	0	2.231709957	0	15.02939606	13.71270943	-81.05410004	1.0
39	0	2.231709957	0	11.9593792	15.71137905	-84.18028259	1.0
40	0	2.231709957	0	0.5539897084	17.86930466	-85.87106323	1.0
[Head]
37	0	1.413589954	0.1823999882	-0.1207496896	6.59772253	-97.27307892	1.0
38	0	1.413589954	0.1823999882	0.1359864026	9.223632813	-97.79968262	1.0
39	0	1.413589954	0.1823999882	-3.054841757	10.20844555	-97.43025208	1.0
40	0	1.413589954	0.1823999882	-3.126822233	11.75177097	-96.78044891	1.0
[LeftShoulder]
37	0.3649300039	1.825889945	-0.04271000251	-17.77514839	-12.93783665	14.49314976	1.0
38	0.3649300039	1.825889945	-0.04271000251	-18.64994621	-12.2612381	10.24333668	1.0
39	0.3649300039	1.825889945	-0.04271000251	-15.85501862	-12.66334248	5.451016426	1.0
40	0.3649300039	1.825889945	-0.04271000251	-14.2500782	-12.69635868	3.532402992	1.0
[LeftArm]
37	1.24003005	0	0	43.79554367	-45.57987976	-67.71643066	1.0
38	1.24003005	0	0	46.14057922	-35.31346893	-70.10259247	1.0
39	1.24003005	0	0	48.62734604	-27.41712952	-71.09712982	1.0
40	1.24003005	0	0	49.60032654	-20.57312775	-73.01939392	1.0
[LeftForeArm]
37	2.847419977	0	0	-74.49691772	-41.57248306	92.9741745	1.0
38	2.847419977	0	0	-62.8622551	-46.90248871	75.07874298	1.0
39	2.847419977	0	0	-38.0098114	-41.54263306	37.76692581	1.0
40	2.847419977	0	0	-27.31525421	-29.99859428	15.46009541	1.0
[LeftHand]
37	2.258270025	0	0	-30.88280296	-11.46694183	-0.3123357892	1.0
38	2.258270025	0	0	-26.17981529	-12.59767723	1.738581777	1.0
39	2.258270025	0	0	-23.58587456	-14.01715374	3.00648427	1.0
40	2.258270025	0	0	-23.48036194	-13.60629845	2.774477959	1.0
[RightShoulder]
37	-0.3646599948	1.825889945	-0.04271000251	-15.7899189	11.58543205	168.1389618	1.0
38	-0.3646599948	1.825889945	-0.04271000251	-16.57408142	13.64923668	170.9156952	1.0
39	-0.3646599948	1.825889945	-0.04271000251	-14.65409946	16.16207504	174.8382874	1.0
40	-0.3646599948	1.825889945	-0.04271000251	-12.84077549	17.55134201	176.9884491	1.0
[RightArm]
37	-1.24003005	0	0	50.836586	47.98109818	-110.2435532	1.0
38	-1.24003005	0	0	52.31855774	37.64062119	-105.2514343	1.0
39	-1.24003005	0	0	47.63196182	28.81962395	-106.6887512	1.0
40	-1.24003005	0	0	44.75723267	23.91640663	-107.2447968	1.0
[RightForeArm]
37	-2.847419977	0	0	-52.52009583	32.56615448	84.85459137	1.0
38	-2.847419977	0	0	-44.98062134	37.15951538	98.80892944	1.0
39	-2.847419977	0	0	-23.33185005	38.95591736	137.1467285	1.0
40	-2.847419977	0	0	-6.680691719	28.46117783	167.8500977	1.0
[RightHand]
37	-2.258270025	0	0	-17.55156708	7.087088585	172.3749542	1.0
38	-2.258270025	0	0	-13.88810539	11.04773903	169.3828735	1.0
39	-2.258270025	0	0	-8.50698185	15.32834053	169.8414001	1.0
40	-2.258270025	0	0	-4.637041092	16.22043228	172.0983276	1.0
[LeftUpLeg]
37	0.9119900465	0	0	-15.03819752	6.130190372	89.30281067	1.0
38	0.9119900465	0	0	-12.96661377	10.42589569	89.20855713	1.0
39	0.9119900465	0	0	-12.45945358	8.788566589	93.40268707	1.0
40	0.9119900465	0	0	-12.18412971	12.87250423	93.69102478	1.0
[LeftLeg]
37	0	-4.371409893	0	39.24605942	-7.890127182	81.08506775	1.0
38	0	-4.371409893	0	25.59523392	-4.346842766	86.22303772	1.0
39	0	-4.371409893	0	19.53199768	-0.07142019272	84.03942871	1.0
40	0	-4.371409893	0	19.60126877	-3.042625427	83.10044861	1.0
[LeftFoot]
37	0	-3.918009996	0	-105.048233	110.7948914	-52.89937592	1.0
38	0	-3.918009996	0	-112.4265366	110.5564499	-69.87229156	1.0
39	0	-3.918009996	0	-100.6591644	110.1231232	-64.65422821	1.0
40	0	-3.918009996	0	-100.2187347	109.1463623	-65.12077332	1.0
[LeftToeBase]
37	0	-0.5927900076	1.367989898	0	0	0	1.0
38	0	-0.5927900076	1.367989898	0	0	0	1.0
39	0	-0.5927900076	1.367989898	0	0	0	1.0
40	0	-0.5927900076	1.367989898	0	0	0	1.0
[RightUpLeg]
37	-0.9119900465	0	0	3.70155549	-18.60075951	87.11477661	1.0
38	-0.9119900465	0	0	-26.3526783	-14.22127438	100.1050568	1.0
39	-0.9119900465	0	0	-52.36954498	-3.897555351	111.6222916	1.0
40	-0.9119900465	0	0	-74.53310394	6.501936436	115.8656998	1.0
[RightLeg]
37	0	-4.371409893	0	66.28790283	12.21685791	60.25611115	1.0
38	0	-4.371409893	0	81.82112885	19.01615715	55.25511551	1.0
39	0	-4.371409893	0	93.56465912	22.68127441	62.45431519	1.0
40	0	-4.371409893	0	101.0778809	24.02591896	65.88087463	1.0
[RightFoot]
37	0	-3.918009996	0	61.05177307	46.69625092	110.5937424	1.0
38	0	-3.918009996	0	63.07138062	46.44167709	117.0907898	1.0
39	0	-3.918009996	0	59.3263855	46.18729401	114.464119	1.0
40	0	-3.918009996	0	54.23276901	48.40325928	111.5289993	1.0
[RightToeBase]
37	0	-0.5927900076	1.367989898	0	0	0	1.0
38	0	-0.5927900076	1.367989898	0	0	0	1.0
39	0	-0.5927900076	1.367989898	0	0	0	1.0
40	0	-0.5927900076	1.367989898	0	0	0	1.0
[EndOfFile]
